<?xml version="1.0" standalone="yes"?>
<svg xmlns="http://www.w3.org/2000/svg" width="7292" height="3000">
<path style="fill:#ffffff; stroke:none;" d="M0 0L0 3000L7292 3000L7292 0L0 0z"/>
<path style="fill:#bda589; stroke:none;" d="M1951.06 502.742C1942.93 506.136 1946 524 1946 531L1946 617L1946 980L1946 1878L1946 2107L1946 2165C1946 2171.26 1944.33 2182.42 1948.74 2187.57C1952.62 2192.09 1963.66 2190 1969 2190L2025 2190L2201 2190L2252 2190C2258.7 2190 2268.68 2191.84 2274.95 2189.26C2283.27 2185.82 2280 2168.19 2280 2161L2280 2076L2280 1714L2280 823L2280 590L2280 529C2280 522.444 2282.2 510.803 2278.14 505.229C2274.29 499.936 2263.7 502 2258 502L2202 502L2025 502L1974 502C1967.32 502 1957.29 500.14 1951.06 502.742M3698 502.424C3642.58 509.703 3590.15 514.634 3537 534.053C3403.1 582.981 3295.7 692.566 3245.95 826C3230.97 866.174 3222.9 908.463 3218.83 951C3217.52 964.667 3213.54 984.603 3217.43 997.956C3220.38 1008.04 3247.89 1003 3256 1003L3349 1003C3357.3 1003 3376.67 1000.86 3382.11 1008.21C3387.19 1015.08 3385 1027.98 3385 1036L3385 1105L3385 1369L3385 1752C3385 1808.14 3380.62 1866.55 3390.61 1922C3396.47 1954.48 3408.51 1985.1 3424.23 2014C3467.44 2093.45 3546.24 2155.83 3634 2177.87C3653.41 2182.75 3673.97 2186.49 3694 2187.01C3699.64 2187.16 3705.35 2188.82 3711 2187.66C3720.46 2185.7 3718 2174.28 3718 2167L3718 2103L3718 1827L3718 810L3718 573L3718 523C3718 517.86 3719.75 508.554 3716.26 504.318C3712.83 500.156 3702.72 501.804 3698 502.424M2655 1177C2668.26 1168.34 2687.72 1169.4 2703 1165.63C2732.24 1158.41 2760.63 1147.77 2787 1133.14C2858.5 1093.48 2918.08 1022.24 2942.97 944C2957.92 897.014 2960.71 847.794 2955.83 799C2943.65 677.195 2855.15 566.625 2741 523.576C2712.81 512.945 2683.05 506.113 2653 503.911C2645.77 503.382 2629.44 499.631 2623.43 504.742C2619.04 508.477 2620 520.679 2620 526L2620 586L2620 829L2620 1815L2620 2099L2620 2166C2620 2173.55 2618.86 2185.36 2628 2187.37C2636.82 2189.31 2647 2188 2656 2188L2708 2188L2875 2188L2933 2188C2939.34 2188 2950.56 2190.04 2955.68 2185.44C2960.33 2181.26 2959 2170.63 2959 2165L2959 2112L2959 1895C2959 1800.37 2960.33 1705.53 2958.01 1611C2956.7 1557.25 2962.16 1502.16 2952.58 1449C2934.02 1346.13 2860.84 1256.17 2768 1209.75C2732.63 1192.07 2693.92 1182.73 2655 1177M4043 838.424C4013.85 842.299 3985.6 850.037 3961 866.746C3865.47 931.619 3865.94 1076.77 3959 1143.57C3996.18 1170.26 4041.64 1175.69 4086 1169.72C4197.29 1154.73 4251.54 1023.84 4203.63 928C4183.92 888.581 4147.42 859.802 4106 846C4086.38 839.461 4063.68 835.675 4043 838.424M5166 1177.42C5138.55 1181.03 5114.11 1188.07 5091 1204.03C4994.56 1270.61 4993.61 1416.34 5091 1482.66C5106.59 1493.27 5123.66 1501.67 5142 1506.37C5162.1 1511.52 5183.46 1512.48 5204 1509.72C5227.86 1506.5 5250.86 1497.83 5271 1484.66C5320.89 1452.03 5353.03 1393.11 5348.91 1333C5342.72 1242.54 5257.93 1165.35 5166 1177.42M4639 1178.42C4600.65 1183.46 4564.19 1192.16 4529 1208.78C4500.71 1222.14 4473.73 1240.5 4451 1261.96C4407.46 1303.08 4371.95 1352.32 4354.03 1410C4341.33 1450.86 4342.02 1490.84 4340.99 1533C4339.62 1588.92 4340 1645 4340 1701C4340 1749.01 4339.81 1797.07 4340.99 1845C4341.89 1881.83 4342.09 1917.47 4353.67 1953C4387.17 2055.8 4470.59 2142.39 4575 2173.72C4596.3 2180.11 4617.91 2183.96 4640 2186.17C4648.04 2186.97 4658.04 2189.07 4666 2187.53C4674.02 2185.98 4674 2179.92 4674 2173L4674 2134L4674 1962L4674 1359L4674 1228L4674 1194C4674 1189.77 4674.88 1183.96 4671.99 1180.43C4667.33 1174.74 4645.77 1177.54 4639 1178.42M5161 1854.42C5136.74 1857.65 5114.51 1865.06 5094 1878.67C5043.81 1911.98 5011.39 1974.34 5017.17 2035C5025.76 2125.23 5110.31 2197.71 5201 2186.71C5224.75 2183.84 5247.6 2175.69 5268 2163.19C5284.04 2153.36 5298.46 2140.49 5310.39 2126C5371.52 2051.71 5356.21 1942.74 5280 1885.13C5263.78 1872.87 5245.6 1863.81 5226 1858.43C5205.98 1852.92 5181.61 1851.69 5161 1854.42M2714 2410.42C2688.43 2413.82 2663.77 2420.68 2642 2435C2568.48 2483.39 2549.41 2594.33 2608.29 2662C2644.55 2703.68 2700.22 2719.96 2754 2712.72C2776.21 2709.73 2797.79 2702.39 2817 2690.8C2891.26 2645.95 2910.27 2536.72 2858.1 2468C2825.46 2425.01 2767.17 2403.36 2714 2410.42M3038 2707L3139 2707C3139 2703.69 3140.18 2697.48 3137.97 2694.74C3130.92 2686 3111.17 2695.75 3107.08 2680C3104.46 2669.89 3112 2656.29 3115.31 2647C3118.98 2636.68 3122.31 2626.25 3126.19 2616C3127.54 2612.43 3128.37 2607.16 3131.42 2604.6C3136.47 2600.37 3150.68 2603 3157 2603L3228 2603C3230.68 2620.87 3241.03 2640.05 3247.42 2657C3249.97 2663.76 3254.81 2672.58 3253.84 2680C3252.03 2693.83 3234.95 2688.06 3227.6 2694.02C3224.65 2696.42 3226 2703.61 3226 2707L3342 2707C3342 2703.69 3343.18 2697.48 3340.97 2694.74C3337.33 2690.23 3322.65 2690.37 3317 2687.12C3308.65 2682.31 3303.46 2673.58 3299.59 2665C3272.28 2604.48 3252 2540.12 3228.58 2478C3222.06 2460.72 3215.45 2443.42 3209.34 2426C3207.74 2421.41 3205.98 2410.63 3199.96 2410.32C3196.29 2410.13 3188.58 2411.72 3186.07 2414.56C3182.33 2418.82 3180.5 2426.76 3178.4 2432C3173.71 2443.71 3168.69 2455.29 3164 2467C3138.65 2530.38 3114.17 2594.97 3085.69 2657C3080.98 2667.26 3075.52 2678.36 3066 2684.95C3059.61 2689.36 3043.16 2689.29 3039.03 2694.6C3036.83 2697.42 3038 2703.61 3038 2707M3619 2496L3632.97 2492.41L3632.13 2474L3625 2422C3602.94 2420.2 3581.26 2412.29 3559 2410.17C3514.64 2405.95 3465.1 2414.41 3427 2438.06C3335.27 2495 3332.45 2638.11 3430 2691.69C3472.81 2715.2 3521.66 2717.5 3569 2711C3580.07 2709.48 3591.11 2707.38 3602 2704.88C3606.06 2703.95 3612.01 2703.75 3615.36 2701.06C3622.72 2695.17 3626.19 2678.58 3629.42 2670C3632.78 2661.1 3635.67 2652.03 3638.67 2643C3639.75 2639.75 3642.31 2634.69 3641.22 2631.22C3639.84 2626.81 3630.13 2623.97 3626.9 2627.33C3619.7 2634.85 3615.43 2646.56 3609.1 2655C3591.83 2678.07 3567.46 2694.67 3538 2695.96C3426.66 2700.84 3371.32 2557.93 3433.9 2474C3473.2 2421.28 3570.44 2403.82 3608.4 2468C3613.3 2476.29 3617.59 2486.43 3619 2496M3660 2707L3761 2707C3761 2703.69 3762.18 2697.48 3759.97 2694.74C3752.92 2686 3733.17 2695.75 3729.08 2680C3726.46 2669.89 3734 2656.29 3737.31 2647C3740.98 2636.68 3744.31 2626.25 3748.19 2616C3749.54 2612.43 3750.37 2607.16 3753.42 2604.6C3758.47 2600.37 3772.68 2603 3779 2603L3850 2603C3852.68 2620.87 3863.03 2640.05 3869.42 2657C3871.97 2663.76 3876.81 2672.58 3875.84 2680C3874.03 2693.83 3856.95 2688.06 3849.6 2694.02C3846.65 2696.42 3848 2703.61 3848 2707L3964 2707C3964 2703.69 3965.18 2697.48 3962.97 2694.74C3959.33 2690.23 3944.65 2690.37 3939 2687.12C3930.65 2682.31 3925.46 2673.58 3921.59 2665C3894.28 2604.48 3874 2540.12 3850.58 2478C3844.06 2460.72 3837.45 2443.42 3831.34 2426C3829.74 2421.41 3827.98 2410.63 3821.96 2410.32C3818.29 2410.13 3810.58 2411.72 3808.07 2414.56C3804.33 2418.82 3802.5 2426.76 3800.4 2432C3795.71 2443.71 3790.69 2455.29 3786 2467C3760.65 2530.38 3736.17 2594.97 3707.69 2657C3702.98 2667.26 3697.52 2678.36 3688 2684.95C3681.61 2689.36 3665.16 2689.29 3661.03 2694.6C3658.83 2697.42 3660 2703.61 3660 2707M2030 2417L2030 2431C2042.02 2431.1 2059.59 2431.96 2064.86 2445C2071.53 2461.55 2068 2484.51 2068 2502L2068 2620C2068 2637.5 2072.63 2664.24 2063.63 2680C2056.13 2693.13 2039.86 2691.61 2027 2694L2027 2707L2156 2707L2156 2694C2143.93 2691.76 2127.8 2693.87 2118.1 2684.79C2110.27 2677.45 2111.57 2666.66 2110.91 2657C2109.23 2632.44 2110 2607.65 2110 2583C2146.51 2595.38 2186.15 2594.62 2219 2572.25C2257.64 2545.95 2270.13 2480.81 2236.91 2445C2212.75 2418.96 2177.22 2417 2144 2417L2030 2417M2288 2417L2288 2431C2300.3 2431.25 2318.04 2432.04 2323.79 2445C2330.86 2460.96 2327 2483.95 2327 2501L2327 2621C2327 2638.05 2331.81 2664.7 2322.91 2680C2315.34 2693.02 2298.83 2691.62 2286 2694L2286 2707L2411 2707L2411 2694C2399.83 2691.93 2386.02 2693.18 2377.1 2684.79C2368.94 2677.11 2370.78 2665.99 2369.83 2656C2367.48 2631.28 2369 2605.85 2369 2581C2382.01 2581 2397.56 2580.39 2409 2587.47C2419.55 2593.99 2425.28 2606.83 2431.68 2617C2445.19 2638.45 2457.12 2662.05 2474.17 2681C2497.43 2706.84 2526.88 2711 2560 2711L2562 2698C2541.78 2692.15 2528.5 2676.88 2515.61 2661C2491.84 2631.7 2472.64 2599.09 2453 2567C2511.31 2550.2 2534.4 2464.08 2478 2430.45C2454.06 2416.18 2425.87 2417 2399 2417L2288 2417M3991 2417L3991 2431C4002.98 2433.22 4019.42 2431.14 4026 2444C4033.88 2459.42 4030 2483.21 4030 2500L4030 2623C4030 2639.98 4034.36 2665.75 4025.47 2680.99C4017.91 2693.93 3999.6 2691.66 3987 2694L3987 2707C4066.98 2707 4162.26 2720.88 4233 2675.31C4310.31 2625.5 4324.43 2489.29 4238 2439.87C4199.13 2417.65 4154.43 2417 4111 2417L3991 2417M4332 2417L4332 2431C4344.26 2431.53 4361.81 2432.22 4367.65 2445C4374.88 2460.83 4371 2484.01 4371 2501L4371 2621C4371 2638.33 4375.67 2664.43 4366.63 2680C4358.77 2693.54 4339.25 2691.54 4326 2694L4326 2707L4551 2707C4555.88 2683.33 4565.5 2658.27 4566 2634L4551 2632C4546.15 2649.73 4534.06 2675.01 4517 2683.62C4501.16 2691.62 4481.19 2690 4464 2690C4450.67 2690 4429.98 2691.77 4420.79 2679.91C4413.55 2670.57 4414 2654.27 4414 2643L4414 2567C4435.73 2567 4467.86 2561.16 4488 2570.35C4495.8 2573.91 4499.43 2581.13 4501.7 2589C4502.64 2592.26 4502.73 2598.79 4505.59 2600.97C4508.62 2603.28 4515.37 2602 4519 2602L4519 2514C4515.37 2514 4508.62 2512.72 4505.59 2515.03C4502.72 2517.21 4502.51 2523.74 4501.57 2527C4499.49 2534.25 4496.05 2540.32 4489 2543.67C4480.77 2547.59 4471.8 2546.65 4463 2547.04C4446.67 2547.75 4430.39 2548 4414 2548L4414 2469C4414 2460.56 4411.32 2445.34 4416.6 2438.13C4422.51 2430.06 4444.1 2434 4453 2434C4469.81 2434 4492.18 2431.31 4507 2440.97C4519.19 2448.92 4526.14 2471.21 4528 2485L4544 2484L4539 2417L4332 2417M4601 2417L4601 2431C4613.91 2432.02 4631.9 2432.65 4638.43 2446C4646.88 2463.26 4640.35 2489.65 4639.09 2508C4636.64 2543.69 4633.71 2579.32 4631.09 2615C4629.74 2633.46 4629.79 2656.78 4622.54 2674C4616.36 2688.66 4600.31 2691.87 4586 2693L4586 2707L4694 2707L4694 2693C4680.92 2691.97 4662.49 2690.98 4655.42 2678C4651.66 2671.1 4652 2661.64 4652 2654C4652 2639.61 4651.93 2625.33 4652.91 2611C4656.13 2563.96 4659.03 2516.13 4660 2469L4661 2469C4665.54 2488.11 4676.87 2506.94 4684.58 2525C4702.7 2567.46 4721.63 2609.58 4739.85 2652C4745.88 2666.03 4751.97 2680.03 4758.14 2694C4760.77 2699.96 4762.75 2706.93 4770.9 2704.68C4775.96 2703.28 4778.19 2694.29 4780.22 2690C4787.26 2675.09 4794.15 2660.06 4800.86 2645C4828.15 2583.73 4859.25 2523.93 4885 2462L4886 2462C4886 2509.39 4887 2556.64 4887 2604C4887 2625.38 4889.74 2648.88 4886.41 2670C4884.43 2682.57 4877.31 2689.03 4865 2691.55C4861.3 2692.31 4852.51 2691.67 4850.03 2694.74C4847.82 2697.47 4849 2703.69 4849 2707L4973 2707C4973 2703.69 4974.18 2697.47 4971.97 2694.74C4969.59 2691.8 4961.51 2692.4 4958 2691.87C4946.89 2690.19 4937.13 2685.63 4933.93 2674C4929.88 2659.32 4931.93 2643.95 4930.91 2629C4928.34 2591.44 4930.48 2553.56 4927.91 2516C4927.07 2503.69 4927.75 2491.3 4926.91 2479C4926.15 2467.95 4924.22 2454.27 4929.67 2444C4936.12 2431.87 4955.9 2431.25 4968 2431L4968 2417L4886 2417L4864.31 2463L4805.14 2587L4783 2635L4707.25 2475L4687.78 2434L4679.36 2418.03L4658 2417L4601 2417M4993 2417L4993 2431C5027.77 2433.74 5040.09 2463.16 5056.2 2490C5068.73 2510.89 5081.23 2531.82 5093.28 2553C5099.07 2563.17 5106.76 2573.61 5109.84 2585C5113.95 2600.18 5111 2619.32 5111 2635C5111 2650.72 5115.24 2675.71 5101 2686.58C5091.72 2693.66 5077.85 2691.99 5067 2694L5067 2707L5201 2707L5201 2694C5189 2692.48 5172.96 2693.66 5163.09 2685.47C5155.01 2678.76 5155.38 2668.5 5154.96 2659C5154.26 2643 5154 2627.06 5154 2611C5154 2599.82 5153.21 2587.91 5156.16 2577C5159.41 2564.99 5167.44 2553.71 5173.58 2543C5184.81 2523.4 5196.13 2503.81 5208.67 2485C5219.42 2468.87 5229.34 2447.45 5247 2437.9C5255.45 2433.33 5265.62 2432.19 5275 2431L5275 2417L5171 2417L5171 2431C5179.62 2431.37 5198.39 2431.9 5202.64 2441.04C5206.54 2449.43 5194.91 2465.68 5191.25 2473C5177.17 2501.16 5155.73 2528.53 5145 2558L5144 2558C5140.02 2547.12 5132.35 2536.93 5126.4 2527C5115.85 2509.42 5105.69 2491.61 5095.2 2474C5091.03 2467 5077.69 2450.45 5079.93 2442.02C5082.33 2432.95 5099.52 2431.95 5107 2431L5107 2417L4993 2417z"/>
<path style="fill:#ffffff; stroke:none;" d="M2718 2427.42C2705.45 2429.08 2693.37 2431.34 2682 2437.32C2615.9 2472.08 2611.78 2572.04 2641.76 2632C2662.66 2673.8 2704.47 2702.12 2752 2695.71C2790.22 2690.56 2816.45 2659.96 2828 2625C2850.47 2556.97 2830.11 2450.88 2751 2430.63C2740.61 2427.97 2728.7 2426.02 2718 2427.42M2110 2567C2125.34 2570.17 2139.25 2573.23 2155 2571C2212.23 2562.88 2227.36 2471.92 2179 2442.46C2164.51 2433.64 2148.48 2432.19 2132 2433C2124.54 2433.37 2115.18 2435.13 2112.26 2443C2106.06 2459.71 2110 2483.42 2110 2501L2110 2567M2369 2566C2389.77 2566 2414.29 2567.58 2433 2556.96C2466.08 2538.17 2474.44 2484.46 2450.53 2455C2436.85 2438.13 2415.86 2432.9 2395 2433C2388.16 2433.03 2377.29 2433.21 2372.73 2439.21C2366.48 2447.42 2369 2465.25 2369 2475L2369 2566M4103 2433.42C4094.88 2434.49 4083.22 2434.28 4077.43 2441.13C4072.98 2446.39 4074.46 2453.71 4073.71 2460C4071.47 2478.99 4073 2498.87 4073 2518L4073 2631C4073 2646.48 4071.45 2666.99 4083.09 2678.96C4096.75 2692.99 4122.31 2690.57 4140 2688.83C4236.12 2679.37 4277.73 2557.74 4225.97 2482C4200.18 2444.25 4147.25 2427.6 4103 2433.42M3180 2473L3139 2582L3220 2582C3214.25 2557.15 3202.49 2533.16 3194.33 2509C3190.71 2498.27 3187.59 2481.44 3180 2473M3802 2473L3761 2582L3842 2582C3836.25 2557.15 3824.49 2533.16 3816.33 2509C3812.71 2498.27 3809.59 2481.44 3802 2473z"/>
</svg>
