<svg id="Layer_1" data-name="Layer 1" xmlns="http://www.w3.org/2000/svg" viewBox="0 0 100.56 69.26"><defs><style>.cls-1,.cls-2{fill:#0085ca;}.cls-2{font-size:18px;font-family:AdobeArabic-Regular, Adobe Arabic;}</style></defs><path class="cls-1" d="M89.08,28.41q0,10.69,0,21.39c0,.71.1.71-.69.65A8.21,8.21,0,0,1,84,48.79a8.7,8.7,0,0,1-3.35-4.93,8.51,8.51,0,0,1-.26-2.07V20.07c0-.54.16-.66-.66-.65H76.15a.19.19,0,0,1-.2-.21A1.61,1.61,0,0,1,76,19a14.27,14.27,0,0,1,.68-3.83A13,13,0,0,1,82.4,8.07a12,12,0,0,1,4.94-1.65l1.36-.13c.32,0,.36,0,.37.33,0,.12,0,.24,0,.36Z" transform="translate(-37.22 -6.28)"/><path class="cls-1" d="M42.69,28.41V6.88c0-.65,0-.59.58-.59h7.89c.17,0,.24.08.24.24V50c0,.55,0,.54-.52.54H43.13c-.44,0-.44,0-.44-.45V28.41Z" transform="translate(-37.22 -6.28)"/><path class="cls-1" d="M61.23,24l.77.14A8.63,8.63,0,0,1,66.9,27,8.24,8.24,0,0,1,69,31.19a8.94,8.94,0,0,1,.11,1c0,.76,0,1.52,0,2.28V49.89c0,.61,0,.58-.57.58H60.76c-.38,0-.39,0-.39-.38V6.94c0-.65-.11-.67.65-.61A8.27,8.27,0,0,1,65.53,8a8.74,8.74,0,0,1,1.19,13.17,8.46,8.46,0,0,1-4.4,2.51l-.71.12-.38.08Z" transform="translate(-37.22 -6.28)"/><path class="cls-1" d="M114.13,37.24V49.91c0,.56,0,.58-.55.54a8.1,8.1,0,0,1-4-1.29,9,9,0,0,1-3.64-4.46,8.09,8.09,0,0,1-.5-2.66c0-3.17,0-6.35,0-9.52a8.05,8.05,0,0,1,1.58-4.8,9,9,0,0,1,4.15-3.21,7.75,7.75,0,0,1,2.61-.5c.33,0,.36,0,.37.34V37.24Z" transform="translate(-37.22 -6.28)"/><path class="cls-1" d="M97.94,23.82a4.34,4.34,0,0,1-4.36-4.32A4.39,4.39,0,0,1,98,15.12a4.27,4.27,0,0,1,4.26,4.43A4.22,4.22,0,0,1,97.94,23.82Z" transform="translate(-37.22 -6.28)"/><path class="cls-1" d="M132.31,28.33a4.33,4.33,0,1,1-8.66.06,4.33,4.33,0,1,1,8.66-.06Z" transform="translate(-37.22 -6.28)"/><path class="cls-1" d="M132.31,46.07a4.33,4.33,0,1,1-8.66.06,4.33,4.33,0,1,1,8.66-.06Z" transform="translate(-37.22 -6.28)"/><text class="cls-2" transform="translate(3.18 59.4)">PRO ACADEMY</text></svg>